<svg id="svg" version="1.1" viewBox="0 0 300 300" width="300" height="300" xmlns="http://www.w3.org/2000/svg"><svg xmlns="http://www.w3.org/2000/svg"><defs><clipPath id="clip-1"><rect x="0" y="0" transform="scale(0.14648,0.14648)" width="2048" height="2048" fill="none"/></clipPath></defs><g clip-path="url(#clip-1)" fill="none" fill-rule="nonzero" stroke="none" stroke-width="1" stroke-linecap="butt" stroke-linejoin="miter" stroke-miterlimit="10" stroke-dasharray="" stroke-dashoffset="0" font-family="none" font-weight="none" font-size="none" text-anchor="none" style="mix-blend-mode: normal"><path d="M141.9854,0h13.9853c2.23682,0.53944 5.00391,0.27663 7.31689,0.53515c3.68555,0.41167 7.41211,0.81034 11.07422,1.39037c15.37207,2.56685 30.26074,7.46616 44.15186,14.52848c2.60449,1.30693 17.92969,10.14961 19.06055,11.7479c1.93799,1.09131 6.75879,4.98296 8.51807,6.48076c10.24951,8.58384 19.32861,18.47417 27.00732,29.41816c1.50732,2.12285 4.21143,5.9833 5.0625,8.377c1.30225,1.03213 4.80469,7.56489 5.33203,9.17534c0.75732,1.01924 1.84424,3.42686 2.43164,4.6626c6.00293,12.62651 10.62451,27.50259 12.55518,41.32236c0.34717,2.54561 0.6416,5.0981 0.8833,7.65571c0.13916,1.39526 0.18018,5.28735 0.63574,6.29795v14.52539c-0.40137,1.05469 -0.58887,8.02881 -0.80713,10.0415c-1.04736,9.60938 -2.84033,19.08838 -5.87256,28.28027c-0.66504,2.01563 -1.26709,4.2876 -2.14307,6.2124c0.04834,0.83936 -1.88818,5.21924 -2.29834,6.21387c-6.5376,15.96387 -15.76465,30.68994 -27.27979,43.53662c-24.89209,28.05029 -60.18164,45.24463 -97.08984,49.00488c-1.7666,0.18018 -4.66846,0.18896 -6.23437,0.59326h-17.3231c-1.14961,-0.43945 -3.99609,-0.4585 -5.28486,-0.62256c-2.902,-0.37061 -12.41851,-1.31982 -14.60391,-2.20752l-0.35464,-0.09375c-1.62656,-0.07031 -4.52812,-0.91846 -6.22104,-1.32422c-18.53877,-4.43262 -36.57202,-12.73535 -52.05176,-23.8667c-27.97354,-20.16357 -48.1892,-49.30811 -57.27583,-82.57324c-1.47595,-5.45508 -3.2727,-13.95557 -3.96349,-19.39014c-0.23914,-1.87646 -0.42983,-3.75879 -0.57189,-5.64404c-0.10845,-1.4751 -0.18523,-4.68018 -0.62438,-5.95752v-16.7209c0.42109,-1.0229 0.55579,-5.24326 0.6573,-6.55518c0.13555,-1.59067 0.30722,-3.17813 0.51487,-4.76104c3.66177,-27.64321 14.95664,-53.71831 32.61636,-75.2981c2.49609,-3.08335 5.13574,-6.04761 7.91016,-8.88311c0.98613,-1.01572 2.5418,-2.6543 3.63501,-3.49424c2.70337,-3.06592 6.25752,-6.16216 9.40107,-8.73765c9.60615,-7.91309 20.17412,-14.57974 31.45269,-19.84154c2.10205,-0.98057 6.20596,-2.8264 8.36821,-3.43119c12.88989,-5.41534 26.83623,-8.4287 40.69409,-9.98259c2.02515,-0.22709 4.81846,0.03375 6.73564,-0.61479z" fill="#22a4c2"/><path d="M0,141.59941c0.42109,-1.0229 0.55579,-5.24326 0.6573,-6.55518c0.13555,-1.59067 0.30722,-3.17813 0.51487,-4.76104c3.66177,-27.64321 14.95664,-53.71831 32.61636,-75.2981c2.49609,-3.08335 5.13574,-6.04761 7.91016,-8.88311c0.98613,-1.01572 2.5418,-2.6543 3.63501,-3.49424c-0.81533,2.74878 -2.43398,5.51177 -3.49028,8.19185c-1.17817,2.9896 -2.47749,5.97554 -3.53481,9.02021c-4.43833,12.78076 -7.45283,26.17778 -6.70298,39.78618c0.15015,2.72505 0.33618,6.16157 0.95933,8.77969c2.53887,15.90161 11.37803,30.10957 24.5209,39.41411c2.50825,1.79736 5.13691,3.41895 7.86738,4.85596c6.51724,3.44238 13.19282,5.36426 15.48164,13.396c0.10796,0.37793 0.29678,0.39844 0.58564,0.42188c0.01362,0.2417 0.04102,0.50537 0.02153,0.74268c-0.16318,0.9873 0.74282,4.37109 0.90864,5.56934c0.71953,5.20459 0.88901,10.40332 0.70327,15.65186c-0.11323,3.20508 -0.54551,6.45117 -0.60952,9.66797c-0.21709,7.76221 2.11978,15.38086 6.65171,21.68701c5.7687,8.01563 15.42993,12.88184 23.26289,18.86865c-0.4481,2.81836 -0.59253,6.37061 -0.73125,9.22559c-0.56938,11.71729 0.37192,28.21436 4.65967,39.27393c1.26621,3.8042 2.80415,6.51709 4.82095,9.91553c-1.62656,-0.07031 -4.52812,-0.91846 -6.22104,-1.32422c-18.53877,-4.43262 -36.57202,-12.73535 -52.05176,-23.8667c-27.97354,-20.16357 -48.1892,-49.30811 -57.27583,-82.57324c-1.47595,-5.45508 -3.2727,-13.95557 -3.96349,-19.39014c-0.23914,-1.87646 -0.42983,-3.75879 -0.57189,-5.64404c-0.10845,-1.4751 -0.18523,-4.68018 -0.62438,-5.95752z" fill="#22a4c2"/><path d="M81.04204,167.21631c3.02314,-0.65771 6.04116,-1.79883 9.05361,-2.42432c9.45322,-1.96143 20.39648,-4.6875 30.02007,-4.12354c8.57036,0.50244 14.95488,7.87793 21.11777,12.91553c6.99844,5.60156 14.43105,10.65088 21.93545,15.53613c4.67725,3.04395 10.16455,5.8374 14.08594,9.76611c8.55908,8.57373 10.13525,23.23096 3.43213,33.35889c-1.75928,2.65723 -3.97559,5.12695 -6.05127,7.56592c-3.01611,3.59473 -6.09375,7.14111 -9.22852,10.6333c-12.60937,13.9585 -25.52197,27.63721 -38.72974,41.02881c-1.21245,1.23926 -4.73599,4.5835 -5.61445,5.69678l-0.35464,-0.09375c-2.0168,-3.39844 -3.55474,-6.11133 -4.82095,-9.91553c-4.28774,-11.05957 -5.22905,-27.55664 -4.65967,-39.27393c0.13872,-2.85498 0.28315,-6.40723 0.73125,-9.22559c-7.83296,-5.98682 -17.49419,-10.85303 -23.26289,-18.86865c-4.53193,-6.30615 -6.8688,-13.9248 -6.65171,-21.68701c0.06401,-3.2168 0.49629,-6.46289 0.60952,-9.66797c0.18574,-5.24854 0.01626,-10.44727 -0.70327,-15.65186c-0.16582,-1.19824 -1.07183,-4.58203 -0.90864,-5.56934z" fill="#f7cf53"/><path d="M115.88745,287.16064c0.71191,0.05713 10.33198,3.90967 10.79004,4.3125c-1.21245,1.23926 -4.73599,4.5835 -5.61445,5.69678l-0.35464,-0.09375c-2.0168,-3.39844 -3.55474,-6.11133 -4.82095,-9.91553z" fill="#d3b761"/><path d="M94.55566,10.59738c0.74429,0.73396 2.50386,1.86201 3.42715,2.50796c1.73833,1.21484 3.4481,2.47005 5.12798,3.76438c0.25518,0.19849 1.67651,1.32056 1.80293,1.46777c2.83711,1.95542 5.41025,4.13687 8.02485,6.37178c7.36479,6.22544 14.14321,13.11299 20.25015,20.57622c2.75068,3.37134 5.43677,6.23569 6.27114,10.64912c0.76274,3.99272 -0.11748,8.12432 -2.4416,11.45933c-3.4689,5.0187 -10.88467,7.11636 -16.10713,9.99038c-9.00967,4.95835 -18.41997,9.90088 -25.90532,17.09048c-3.92593,3.7708 -6.70239,8.22729 -12.61201,9.06226c-3.23467,0.50303 -6.0687,-0.07646 -9.34365,-0.72275c-9.53628,-1.88203 -19.96479,5.95723 -18.27876,16.08589c0.89678,5.3874 4.83574,10.49795 8.12959,14.74937c6.1125,8.11743 14.15654,16.04282 17.24019,25.92319c0.69023,2.21191 0.77461,4.6333 0.87935,6.90088c-0.28887,-0.02344 -0.47769,-0.04395 -0.58564,-0.42187c-2.28882,-8.03174 -8.9644,-9.95361 -15.48164,-13.396c-2.73047,-1.43701 -5.35913,-3.05859 -7.86738,-4.85596c-13.14287,-9.30454 -21.98203,-23.5125 -24.5209,-39.41411c-0.62314,-2.61812 -0.80918,-6.05464 -0.95933,-8.77969c-0.74985,-13.6084 2.26465,-27.00542 6.70298,-39.78618c1.05732,-3.04468 2.35664,-6.03062 3.53481,-9.02021c1.0563,-2.68008 2.67495,-5.44307 3.49028,-8.19185c2.70337,-3.06592 6.25752,-6.16216 9.40107,-8.73765c9.60615,-7.91309 20.17412,-14.57974 31.45269,-19.84154c2.10205,-0.98057 6.20596,-2.8264 8.36821,-3.43119z" fill="#f7cf53"/><path d="M94.55566,10.59738c0.74429,0.73396 2.50386,1.86201 3.42715,2.50796c1.73833,1.21484 3.4481,2.47005 5.12798,3.76438c0.25518,0.19849 1.67651,1.32056 1.80293,1.46777c-1.38486,1.20366 -4.94619,3.08892 -6.64688,4.13906c-3.30688,2.05928 -6.53716,4.23896 -9.68437,6.53496c-16.94063,12.41733 -31.09673,28.24072 -41.55879,46.454c-3.9334,6.87231 -7.31733,14.04478 -10.12017,21.45059c-0.8209,2.16445 -1.59111,4.34795 -2.30991,6.54858c-0.44722,1.3563 -1.08179,3.98525 -2.02866,4.921c-0.62314,-2.61812 -0.80918,-6.05464 -0.95933,-8.77969c-0.74985,-13.6084 2.26465,-27.00542 6.70298,-39.78618c1.05732,-3.04468 2.35664,-6.03062 3.53481,-9.02021c1.0563,-2.68008 2.67495,-5.44307 3.49028,-8.19185c2.70337,-3.06592 6.25752,-6.16216 9.40107,-8.73765c9.60615,-7.91309 20.17412,-14.57974 31.45269,-19.84154c2.10205,-0.98057 6.20596,-2.8264 8.36821,-3.43119z" fill="#d3b761"/><path d="M283.49414,81.65317c0.75732,1.01924 1.84424,3.42686 2.43164,4.6626c6.00293,12.62651 10.62451,27.50259 12.55518,41.32236c0.34717,2.54561 0.6416,5.0981 0.8833,7.65571c0.13916,1.39526 0.18018,5.28735 0.63574,6.29795v14.52539c-0.40137,1.05469 -0.58887,8.02881 -0.80713,10.0415c-1.04736,9.60938 -2.84033,19.08838 -5.87256,28.28027c-0.66504,2.01563 -1.26709,4.2876 -2.14307,6.2124c-3.32812,-5.38037 -5.66309,-13.70801 -6.48633,-19.97607c-0.33984,-2.59277 -0.47754,-5.2002 -0.89355,-7.85156c-1.14258,-7.27148 -7.16895,-12.9873 -14.5708,-13.39014c-3.375,-0.18457 -6.64746,0.51855 -10.09277,0.12598c-3.85986,-0.4248 -7.54541,-1.83105 -10.70654,-4.08545c-5.29248,-3.73828 -8.74658,-9.38657 -9.72949,-15.78149c-0.86719,-5.63833 -1.02539,-11.91123 -0.70752,-17.62764c0.11133,-2.02017 0.70166,-4.51729 1.0708,-6.54521c1.4502,-7.97197 4.06934,-15.92666 8.67334,-22.65762c1.77246,-2.59072 3.88916,-4.48755 6.08057,-6.4957c6.1626,-5.64668 10.01953,-4.17349 17.69531,-3.78662c3.73828,0.18838 8.22656,-0.30293 11.98389,-0.92666z" fill="#f7cf53"/><path d="M237.57422,28.2019c1.93799,1.09131 6.75879,4.98296 8.51807,6.48076c10.24951,8.58384 19.32861,18.47417 27.00732,29.41816c1.50732,2.12285 4.21143,5.9833 5.0625,8.377c-1.11182,-0.49526 -4.51611,-2.81572 -5.86084,-3.61509c-8.0332,-4.77407 -19.49561,-9.23379 -26.67627,-0.62915c-2.81982,3.3791 -3.62695,7.20044 -8.67334,8.43047c-2.53711,0.60776 -5.21191,0.16934 -7.4209,-1.2167c-2.11963,-1.33682 -3.60645,-3.47476 -4.12354,-5.92632c-0.4043,-1.87778 -0.1626,-4.20659 -0.04834,-6.13154c0.67676,-11.36748 6.00293,-25.65894 12.21533,-35.1876z" fill="#f7cf53"/><path d="M136.98193,15.35757c1.40552,-0.0876 5.39517,0.40708 7.00166,0.60776c10.08721,1.25991 21.70928,3.21372 30.36211,8.82554l-10.35205,13.51157c-2.48437,3.25312 -5.33496,7.15503 -7.94971,10.24731c-0.91699,-6.74063 -4.87793,-14.00332 -8.90332,-19.45518c-1.71445,-2.29204 -3.49688,-4.53267 -5.34448,-6.71895c-1.44771,-1.72822 -4.46821,-4.89888 -4.81421,-7.01807z" fill="#f7cf53"/></g></svg></svg>